<svg width="28" height="28" viewBox="0 0 28 28" fill="none" xmlns="http://www.w3.org/2000/svg">
<path fill-rule="evenodd" clip-rule="evenodd" d="M13.8678 16.8163L13.9995 16.8163L14.2942 16.8173C16.5466 16.8322 21.6938 17.0597 21.6938 20.5485C21.6938 24.0143 16.726 24.2404 14.3293 24.2551L13.4414 24.2551C11.1889 24.2403 6.04065 24.013 6.04065 20.5286C6.04065 17.0584 11.1889 16.8321 13.4414 16.8173L13.7361 16.8163C13.7818 16.8163 13.8257 16.8163 13.8678 16.8163ZM13.8678 18.5663C11.0958 18.5663 7.79065 18.907 7.79065 20.5286C7.79065 22.1136 10.8985 22.4842 13.6145 22.5052L13.8678 22.5061C16.6398 22.5061 19.9438 22.1666 19.9438 20.5485C19.9438 18.9105 16.6398 18.5663 13.8678 18.5663ZM23.147 16.3429C25.9739 16.7664 26.5677 18.094 26.5677 19.1335C26.5677 19.7682 26.318 20.9267 24.6497 21.5625C24.547 21.601 24.442 21.6197 24.3382 21.6197C23.9858 21.6197 23.6533 21.405 23.5203 21.0562C23.3477 20.6047 23.5752 20.0984 24.0267 19.9269C24.8177 19.6259 24.8177 19.2934 24.8177 19.1335C24.8177 18.6225 24.1679 18.2655 22.8869 18.0742C22.4097 18.0019 22.0795 17.5574 22.1507 17.0779C22.2218 16.5995 22.6652 16.281 23.147 16.3429ZM5.58378 17.0779C5.65495 17.5574 5.32478 18.0019 4.84761 18.0742C3.56661 18.2655 2.91678 18.6225 2.91678 19.1335C2.91678 19.2934 2.91678 19.6247 3.70895 19.9269C4.16045 20.0984 4.38795 20.6047 4.21528 21.0562C4.08228 21.405 3.74978 21.6197 3.39745 21.6197C3.29361 21.6197 3.18861 21.601 3.08595 21.5625C1.41645 20.9255 1.16678 19.767 1.16678 19.1335C1.16678 18.0952 1.76061 16.7664 4.58861 16.3429C5.07045 16.2822 5.51145 16.5995 5.58378 17.0779ZM13.8678 4.66663C16.8078 4.66663 19.1983 7.05829 19.1983 9.99713C19.1983 12.936 16.8078 15.3276 13.8678 15.3276H13.8363C12.413 15.323 11.0795 14.7653 10.0808 13.7573C9.07981 12.7505 8.53265 11.4135 8.53843 9.99363C8.53843 7.05829 10.929 4.66663 13.8678 4.66663ZM13.8678 6.41663C11.8938 6.41663 10.2885 8.02313 10.2885 9.99713C10.285 10.9538 10.6513 11.8486 11.3221 12.5241C11.993 13.1996 12.8866 13.5741 13.8386 13.5776L13.8678 14.4526V13.5776C15.8418 13.5776 17.4483 11.9723 17.4483 9.99713C17.4483 8.02313 15.8418 6.41663 13.8678 6.41663ZM21.0883 5.80938C23.1393 6.14654 24.6292 7.90121 24.6292 9.98138C24.6245 12.0755 23.06 13.8722 20.9891 14.1627C20.9483 14.1685 20.9075 14.1709 20.8678 14.1709C20.4385 14.1709 20.064 13.8547 20.0021 13.4172C19.9356 12.9377 20.2682 12.4955 20.7477 12.429C21.961 12.2587 22.8768 11.2064 22.8792 9.97904C22.8792 8.76221 22.0065 7.73321 20.8036 7.53604C20.3276 7.45788 20.0045 7.00754 20.0826 6.53038C20.162 6.05321 20.6088 5.73354 21.0883 5.80938ZM7.65298 6.53038C7.73115 7.00754 7.40798 7.45788 6.93198 7.53604C5.72915 7.73321 4.85648 8.76221 4.85648 9.98138C4.85881 11.2064 5.77465 12.2599 6.98681 12.429C7.46631 12.4955 7.79881 12.9377 7.73231 13.4172C7.67048 13.8547 7.29598 14.1709 6.86665 14.1709C6.82698 14.1709 6.78615 14.1685 6.74531 14.1627C4.67448 13.8722 3.11115 12.0755 3.10648 9.98371C3.10648 7.90121 4.59631 6.14654 6.64731 5.80938C7.13848 5.73238 7.57365 6.05554 7.65298 6.53038Z" fill="black" fill-opacity="0.6"/>
</svg>
