<svg width="28" height="28" viewBox="0 0 28 28" fill="none" xmlns="http://www.w3.org/2000/svg">
<path fill-rule="evenodd" clip-rule="evenodd" d="M13.7065 1.16699C17.0583 1.16699 20.2083 2.47016 22.5743 4.83733C27.465 9.72799 27.465 17.6847 22.5743 22.5753C20.1768 24.974 16.9486 26.2433 13.6785 26.2433C11.8958 26.2433 10.1015 25.8665 8.42264 25.0895C7.92797 24.8912 7.4648 24.7045 7.1323 24.7045C6.74964 24.7068 6.23514 24.8842 5.73814 25.0557C4.71847 25.4057 3.44914 25.842 2.50997 24.9063C1.5743 23.9695 2.00597 22.7037 2.35364 21.6852C2.52514 21.1835 2.7013 20.6655 2.7013 20.2735C2.7013 19.9515 2.54614 19.5408 2.30814 18.9493C0.122969 14.2302 1.1333 8.54266 4.8398 4.83849C7.2058 2.47133 10.3546 1.16699 13.7065 1.16699ZM13.7076 2.91699C10.8225 2.91699 8.1123 4.03933 6.07647 6.07633C2.8868 9.26366 2.0188 14.1578 3.91464 18.2563C4.18764 18.9318 4.4513 19.5898 4.4513 20.2735C4.4513 20.956 4.2168 21.6432 4.0103 22.2498C3.83997 22.7492 3.58214 23.5028 3.7478 23.6685C3.90997 23.8365 4.6683 23.5717 5.1688 23.4002C5.76964 23.1948 6.45097 22.9592 7.12647 22.9545C7.80314 22.9545 8.4413 23.2112 9.1168 23.483C13.255 25.3963 18.1491 24.526 21.3376 21.3387C25.5446 17.1293 25.5446 10.2822 21.3376 6.07516C19.3006 4.03816 16.5916 2.91699 13.7076 2.91699ZM18.3124 13.0235C18.9564 13.0235 19.479 13.545 19.479 14.1901C19.479 14.8353 18.9564 15.3568 18.3124 15.3568C17.6684 15.3568 17.141 14.8353 17.141 14.1901C17.141 13.545 17.6579 13.0235 18.3019 13.0235H18.3124ZM13.6354 13.0235C14.2794 13.0235 14.8021 13.545 14.8021 14.1901C14.8021 14.8353 14.2794 15.3568 13.6354 15.3568C12.9914 15.3568 12.4641 14.8353 12.4641 14.1901C12.4641 13.545 12.9798 13.0235 13.6249 13.0235H13.6354ZM8.95802 13.0235C9.60202 13.0235 10.1247 13.545 10.1247 14.1901C10.1247 14.8353 9.60202 15.3568 8.95802 15.3568C8.31402 15.3568 7.78669 14.8353 7.78669 14.1901C7.78669 13.545 8.30352 13.0235 8.94752 13.0235H8.95802Z" fill="black" fill-opacity="0.6"/>
</svg>
