<svg width="28" height="28" viewBox="0 0 28 28" fill="none" xmlns="http://www.w3.org/2000/svg">
<path d="M10.6572 24.2356V20.6683C10.6572 19.7576 11.4009 19.0194 12.3182 19.0194H15.6714C16.1119 19.0194 16.5343 19.1931 16.8458 19.5023C17.1573 19.8116 17.3323 20.231 17.3323 20.6683V24.2356C17.3295 24.6142 17.4791 24.9782 17.7478 25.2469C18.0164 25.5156 18.382 25.6667 18.7634 25.6667H21.0511C22.1196 25.6695 23.1452 25.25 23.9017 24.501C24.6582 23.7519 25.0833 22.7349 25.0833 21.6742V11.5114C25.0833 10.6546 24.7007 9.84186 24.0387 9.29215L16.2564 3.12189C14.9026 2.04003 12.963 2.07496 11.6496 3.20485L4.04484 9.29215C3.35152 9.82565 2.93713 10.6408 2.91666 11.5114V21.6638C2.91666 23.8745 4.72193 25.6667 6.94886 25.6667H9.18433C9.97642 25.6667 10.6202 25.0323 10.6259 24.246L10.6572 24.2356Z" fill="#00ACFF"/>
</svg>
