<svg width="152" height="40" viewBox="0 0 152 40" fill="none" xmlns="http://www.w3.org/2000/svg">
<path d="M7.55859 28.7637H18.7559V33H2.28516V7.40625H7.55859V28.7637ZM26.8242 33H21.7266V13.9805H26.8242V33ZM21.4277 9.05859C21.4277 8.29688 21.6797 7.66992 22.1836 7.17773C22.6992 6.68555 23.3965 6.43945 24.2754 6.43945C25.1426 6.43945 25.834 6.68555 26.3496 7.17773C26.8652 7.66992 27.123 8.29688 27.123 9.05859C27.123 9.83203 26.8594 10.4648 26.332 10.957C25.8164 11.4492 25.1309 11.6953 24.2754 11.6953C23.4199 11.6953 22.7285 11.4492 22.2012 10.957C21.6855 10.4648 21.4277 9.83203 21.4277 9.05859ZM35.7012 13.9805L35.8594 16.1777C37.2188 14.4785 39.041 13.6289 41.3262 13.6289C43.3418 13.6289 44.8418 14.2207 45.8262 15.4043C46.8105 16.5879 47.3145 18.3574 47.3379 20.7129V33H42.2578V20.8359C42.2578 19.7578 42.0234 18.9785 41.5547 18.498C41.0859 18.0059 40.3066 17.7598 39.2168 17.7598C37.7871 17.7598 36.7148 18.3691 36 19.5879V33H30.9199V13.9805H35.7012ZM58.1133 25.3711L56.2852 27.1992V33H51.2051V6H56.2852V20.959L57.2695 19.6934L62.1387 13.9805H68.2383L61.3652 21.9082L68.8359 33H63L58.1133 25.3711ZM78.8379 33.3516C76.0488 33.3516 73.7754 32.4961 72.0176 30.7852C70.2715 29.0742 69.3984 26.7949 69.3984 23.9473V23.4551C69.3984 21.5449 69.7676 19.8398 70.5059 18.3398C71.2441 16.8281 72.2871 15.668 73.6348 14.8594C74.9941 14.0391 76.541 13.6289 78.2754 13.6289C80.877 13.6289 82.9219 14.4492 84.4102 16.0898C85.9102 17.7305 86.6602 20.0566 86.6602 23.0684V25.1426H74.5488C74.7129 26.3848 75.2051 27.3809 76.0254 28.1309C76.8574 28.8809 77.9062 29.2559 79.1719 29.2559C81.1289 29.2559 82.6582 28.5469 83.7598 27.1289L86.2559 29.9238C85.4941 31.002 84.4629 31.8457 83.1621 32.4551C81.8613 33.0527 80.4199 33.3516 78.8379 33.3516ZM78.2578 17.7422C77.25 17.7422 76.4297 18.082 75.7969 18.7617C75.1758 19.4414 74.7773 20.4141 74.6016 21.6797H81.668V21.2754C81.6445 20.1504 81.3398 19.2832 80.7539 18.6738C80.168 18.0527 79.3359 17.7422 78.2578 17.7422ZM88.7695 23.3496C88.7695 20.3848 89.4316 18.0234 90.7559 16.2656C92.0918 14.5078 93.9141 13.6289 96.2227 13.6289C98.0742 13.6289 99.6035 14.3203 100.811 15.7031V6H105.908V33H101.32L101.074 30.9785C99.8086 32.5605 98.1797 33.3516 96.1875 33.3516C93.9492 33.3516 92.1504 32.4727 90.791 30.7148C89.4434 28.9453 88.7695 26.4902 88.7695 23.3496ZM93.8496 23.7188C93.8496 25.5 94.1602 26.8652 94.7812 27.8145C95.4023 28.7637 96.3047 29.2383 97.4883 29.2383C99.0586 29.2383 100.166 28.5762 100.811 27.252V19.7461C100.178 18.4219 99.082 17.7598 97.5234 17.7598C95.0742 17.7598 93.8496 19.7461 93.8496 23.7188Z" fill="#00ACFF"/>
<path d="M112 12.8C112 8.31958 112 6.07937 112.872 4.36808C113.639 2.86278 114.863 1.63893 116.368 0.871948C118.079 0 120.32 0 124.8 0H139.2C143.68 0 145.921 0 147.632 0.871948C149.137 1.63893 150.361 2.86278 151.128 4.36808C152 6.07937 152 8.31958 152 12.8V27.2C152 31.6804 152 33.9206 151.128 35.6319C150.361 37.1372 149.137 38.3611 147.632 39.1281C145.921 40 143.68 40 139.2 40H124.8C120.32 40 118.079 40 116.368 39.1281C114.863 38.3611 113.639 37.1372 112.872 35.6319C112 33.9206 112 31.6804 112 27.2V12.8Z" fill="#00ACFF"/>
<path d="M124.441 33H119.344V13.9805H124.441V33ZM119.045 9.05859C119.045 8.29688 119.297 7.66992 119.801 7.17773C120.316 6.68555 121.014 6.43945 121.893 6.43945C122.76 6.43945 123.451 6.68555 123.967 7.17773C124.482 7.66992 124.74 8.29688 124.74 9.05859C124.74 9.83203 124.477 10.4648 123.949 10.957C123.434 11.4492 122.748 11.6953 121.893 11.6953C121.037 11.6953 120.346 11.4492 119.818 10.957C119.303 10.4648 119.045 9.83203 119.045 9.05859ZM133.318 13.9805L133.477 16.1777C134.836 14.4785 136.658 13.6289 138.943 13.6289C140.959 13.6289 142.459 14.2207 143.443 15.4043C144.428 16.5879 144.932 18.3574 144.955 20.7129V33H139.875V20.8359C139.875 19.7578 139.641 18.9785 139.172 18.498C138.703 18.0059 137.924 17.7598 136.834 17.7598C135.404 17.7598 134.332 18.3691 133.617 19.5879V33H128.537V13.9805H133.318Z" fill="white"/>
</svg>
