<svg width="28" height="28" viewBox="0 0 28 28" fill="none" xmlns="http://www.w3.org/2000/svg">
<path fill-rule="evenodd" clip-rule="evenodd" d="M12.045 23.457C12.6493 24.1301 13.4252 24.5 14.2302 24.5H14.2313C15.0398 24.5 15.8192 24.1301 16.4247 23.4558C16.749 23.0976 17.302 23.0685 17.6602 23.3916C18.0195 23.7148 18.0487 24.269 17.7255 24.6271C16.7828 25.6736 15.5427 26.25 14.2313 26.25H14.229C12.9212 26.2488 11.6833 25.6725 10.7442 24.626C10.421 24.2678 10.4502 23.7136 10.8095 23.3916C11.1688 23.0673 11.7218 23.0965 12.045 23.457ZM14.2883 1.16663C19.4741 1.16663 22.9578 5.20563 22.9578 8.97746C22.9578 10.9176 23.4513 11.7401 23.9751 12.6128C24.4931 13.4738 25.0799 14.4515 25.0799 16.2995C24.6728 21.021 19.7436 21.406 14.2883 21.406C8.83294 21.406 3.9026 21.021 3.50009 16.3741C3.4966 14.4515 4.08344 13.4738 4.60144 12.6128L4.78431 12.305C5.23456 11.5311 5.61877 10.6894 5.61877 8.97746C5.61877 5.20563 9.10244 1.16663 14.2883 1.16663ZM14.2883 2.91663C10.2108 2.91663 7.36877 6.11096 7.36877 8.97746C7.36877 11.403 6.6956 12.5241 6.1006 13.5135C5.62344 14.308 5.2466 14.9356 5.2466 16.2995C5.44144 18.4998 6.89394 19.656 14.2883 19.656C21.6418 19.656 23.1398 18.4485 23.3334 16.2236C23.3299 14.9356 22.9531 14.308 22.4759 13.5135C21.8809 12.5241 21.2078 11.403 21.2078 8.97746C21.2078 6.11096 18.3658 2.91663 14.2883 2.91663Z" fill="black" fill-opacity="0.6"/>
</svg>
