<svg width="28" height="28" viewBox="0 0 28 28" fill="none" xmlns="http://www.w3.org/2000/svg">
<path fill-rule="evenodd" clip-rule="evenodd" d="M23.1466 21.2253C23.1466 25.0706 17.8732 25.5151 13.9077 25.5151L13.6239 25.5149C11.0975 25.5088 4.66655 25.3492 4.66655 21.202C4.66655 17.4351 9.72796 16.9317 13.6633 16.9127L14.1915 16.9124C16.7178 16.9185 23.1466 17.078 23.1466 21.2253ZM13.9077 18.6621C8.93655 18.6621 6.41655 19.5161 6.41655 21.202C6.41655 22.903 8.93655 23.7651 13.9077 23.7651C18.8777 23.7651 21.3966 22.9111 21.3966 21.2253C21.3966 19.5243 18.8777 18.6621 13.9077 18.6621ZM13.9077 2.33301C17.3237 2.33301 20.1016 5.11201 20.1016 8.52801C20.1016 11.944 17.3237 14.7218 13.9077 14.7218H13.8704C10.4614 14.7113 7.69988 11.9312 7.71151 8.52451C7.71151 5.11201 10.4906 2.33301 13.9077 2.33301ZM13.9077 3.99901C11.4099 3.99901 9.37753 6.03017 9.37753 8.52801C9.36938 11.0177 11.3866 13.0477 13.8739 13.057L13.9077 13.89V13.057C16.4044 13.057 18.4356 11.0247 18.4356 8.52801C18.4356 6.03017 16.4044 3.99901 13.9077 3.99901Z" fill="black" fill-opacity="0.6"/>
</svg>
