<svg width="28" height="28" viewBox="0 0 28 28" fill="none" xmlns="http://www.w3.org/2000/svg">
<path fill-rule="evenodd" clip-rule="evenodd" d="M24.8184 17.1911C25.3002 17.2273 25.6607 17.6484 25.6245 18.1303L25.4029 21.0574C25.2197 23.4724 23.1816 25.3636 20.7607 25.3636H7.22739C4.80655 25.3636 2.76839 23.4724 2.58522 21.0574L2.36355 18.1303C2.32739 17.6484 2.68905 17.2273 3.17089 17.1911C3.65505 17.1736 4.07272 17.5154 4.11005 17.9984L4.33055 20.9244C4.44489 22.4318 5.71655 23.6136 7.22739 23.6136H20.7607C22.2716 23.6136 23.5444 22.4318 23.6576 20.9244L23.8792 17.9984C23.9165 17.5154 24.3447 17.1724 24.8184 17.1911ZM15.4993 2.3335C17.2527 2.3335 18.7054 3.64747 18.9241 5.34236L21.2219 5.34338C23.6672 5.34338 25.6552 7.33721 25.6552 9.78955V13.8017C25.6552 14.1132 25.4896 14.4002 25.2224 14.5565C22.3427 16.243 18.6948 17.2266 14.8689 17.3578L14.8693 19.4562C14.8693 19.9392 14.4773 20.3312 13.9943 20.3312C13.5113 20.3312 13.1193 19.9392 13.1193 19.4562L13.1185 17.3581C9.29645 17.2281 5.64825 16.2442 2.7664 14.5565C2.49807 14.4002 2.33357 14.1132 2.33357 13.8017V9.77788C2.33357 7.33255 4.3274 5.34338 6.77857 5.34338L9.06443 5.34236C9.28322 3.64747 10.7359 2.3335 12.4893 2.3335H15.4993ZM21.2219 7.09338H6.77857C5.29223 7.09338 4.08357 8.29738 4.08357 9.77788V13.2919C6.8529 14.7966 10.3442 15.6213 13.9781 15.6229L13.9943 15.6214L14.0072 15.6218L14.5627 15.616C17.9995 15.5342 21.278 14.7188 23.9052 13.2919V9.78955C23.9052 8.30205 22.7024 7.09338 21.2219 7.09338ZM15.4993 4.0835H12.4893C11.7037 4.0835 11.0406 4.61815 10.8447 5.34265H17.1439C16.948 4.61815 16.2849 4.0835 15.4993 4.0835Z" fill="black" fill-opacity="0.6"/>
</svg>
